<?xml version="1.0" encoding="UTF-8"?><svg id="Layer_1" xmlns="http://www.w3.org/2000/svg" viewBox="0 0 850.39 850.39"><defs><style>.cls-1{fill:#599e1a;}.cls-2{fill:#fda400;}.cls-3{fill:#ab5b00;}</style></defs><path class="cls-2" d="M419.18,179.19v99.5c2.26-1.19,4.57-1.62,6.84-.67,5.46,2.27,9.91,6.39,14.89,9.61v-9.29h102.09v15.29h-57.01c.17,1.69.1,3.46.03,5.08-.23,5.3.33,10.63,1.66,15.78h55.32v15.3h-48.87c.57.95,1.18,1.86,1.82,2.77,4.4,6.22,10.18,11.7,14.12,18.1h32.93v15.3h-28.24c.29,3.79.33,7.61,1.02,11.34.63,3.39,1.75,6.54,3.22,9.51h24.01v15.3h-12.64c7.73,8.12,16.81,15.65,23.18,24.76,3.61,5.17,6.65,11.21,12.23,14.15.28.15.57.29.86.42V127.28l-147.46,51.91ZM543.01,257.49h-102.09v-15.3h102.09v15.3ZM543.01,221.32h-102.09v-15.29h102.09v15.29Z"/><path class="cls-1" d="M586.4,594.95c-1.99.44-5,8.67-6.53,10.49-2.9,3.45-6.64,6.21-10.87,7.81-6.81,2.59-15.64,3.14-18.89,9.66-1.59,3.18-1.26,6.97-.62,10.46,1.31,7.14,3.79,14.23,3.09,21.46-.62,6.42-3.72,12.37-4.75,18.74-1.03,6.37.95,14.17,7,16.42,4.44,1.65,9.58-.4,12.89-3.79,3.31-3.39,5.18-7.89,6.98-12.28,4.6-11.22,9.2-22.44,13.79-33.66,3.15-7.68,6.33-15.52,6.92-23.79.31-4.38-1.72-23.13-9.03-21.52Z"/><path class="cls-2" d="M434.84,622.9c-.59-3.45-1.3-6.86-1.95-10.3-.29-1.53-.59-3.06-.89-4.59-4.89-10.2-10.64-20.23-15.72-29.14-7.93-13.9-17.06-25.2-22.15-40.06-4.72-13.75-12.12-24-22.55-34.19-7.39-7.21-15.05-13.43-22.89-19.72-2.84-2.28-5.94-4.74-8.33-7.7-29.99-26.38-55.96-57.31-76.7-91.44-2.11-3.47-6.23-2.62-10.17-1.6-.62,1.82-6.05,6.23-8.17,7.94-3.38,2.73-7.36,3.49-11.54,4.18-4.57.75-9.17,2.01-13.74,2.87-2.99.56-6.2.79-8.38,3.23-1.97,2.21-1.39,5.91-3.99,8.21-2.42,2.14-6.87,2.91-9.83,1.32-2.91-1.56-2.54-4.51-1.05-7.43-1.63-.19-3.28,2.77-3.52,4.2-.29,1.73.64,3.14,1.62,4.39-1.04,1.78-4.77.39-5.14-1.15-2.2-8.93,1.21-16.7,6.26-21.79,1.3-5.16,4.52-10.67,7.82-14.82,2.93-3.69,4.04-7.18,5.42-11.68,2.25-7.32,2.93-20.52,12.89-20.5,3.01-4.13,4.48-8.88,5.97-14.12,1.16-4.08,1.1-9.53,3.18-13.16,1.84-3.21,5.81-4.52,9.43-4.13,6.03.65,6.15,3.09,3.32,7.6-2.67,4.25-4.19,8.39-2.33,13.34,1.78,4.74,7.26-2.03,9.1-3.98,2.05-2.19,4.11-3.53,7.04-4.31,2.71,5.34,3.49,13.28,1.23,18.81,4.09-1.79,4.95-8.02,4.89-11.92,9.1,2.25,16.75-10.95,23.57-14.56,3.74,5.34-2.3,16.49-6.56,19.97,6.35,10.99,20.83,20.78,32.28,26.44-1.92,1.67-4.48,5.27-5.34,7.58,2.56-1.88,5.73-3.02,8.59-4.48,2.51,2.78,6.46,4.88,9.54,7.23,4.97,3.78,10.16,7.26,15.39,10.68,3.85,2.52,7.87,5.03,11.97,7.34-.29-.47-.58-.94-.87-1.4-3.52-5.87-7.47-11.43-11.28-17.11-4.05-5.49-7.9-11.14-12.19-16.48-8.4-10.8-17.29-21.31-26.73-31.39-18.74-20.32-39.28-39.26-60.42-57.78-3.65-3.19-7.34-6.36-11.03-9.53-3.37-1.82-7.92-2.4-10.39.44-3.19,3.67-.28,9.24-.11,14.1.23,6.69-5.05,12.25-10.55,16.07-5.49,3.82-11.78,6.97-15.5,12.53-5.48,8.2-4.27,20.1-11.33,26.99-5.69,5.55-14.95,5.92-20.83,11.26-6.52,5.92-6.89,15.86-6.8,24.67.15,14.6.31,29.2.46,43.8.1,9.97.66,21.05,7.77,28.04,2.64,2.59,6.11,4.53,7.66,7.88,1.97,4.27.31,9.85,3.21,13.55,3.49,4.43,10.85,2.92,15.43,6.22,3.64,2.62,4.63,7.56,7.34,11.13,5.17,6.81,15.13,7.21,23.66,6.51,19.43-1.6,38.66-5.68,57.07-12.11,4.15-1.45,9.03-2.95,12.68-.5,5.75,3.85,4.17,14.73,10.7,17.03,4.46,1.57,9.6-2.41,13.94-.54,5.4,2.33,3.96,10.27,1.83,15.75-2.13,5.48-2.71,13.78,3,15.2,6.8,9.56,12.97,18.77,19.77,28.33,6,8.44,12.11,17.1,14.91,27.07,2.4,8.55,2.2,17.81-.56,26.25-1.54,4.69-3.85,9.15-4.83,13.98-.91,4.47-.66,9.1-.09,13.62,2.34,18.63,9.85,36.25,13.06,54.75,1.93,11.12,2.48,23.04,8.82,32.38,5.64,8.31,15.98,15.69,13.9,25.51-1.75,8.26,4.81,15.69,13.02,17.63,8.21,1.94,16.76-.82,24.58-3.98,10.57-4.27,21.18-9.69,29.67-17.14l-4.12-28.13c-4.1-27.91-8.33-55.69-13.43-83.18ZM355.9,526.36c6.6.39,13.06,3.22,17.89,8.46,4.84,5.24,7.15,11.9,7,18.51-6.6-.39-13.06-3.22-17.89-8.46-4.84-5.24-7.15-11.9-7-18.51ZM367.53,592.5c2.27-12.77,9.38-23.46,19.11-30.53,6.7,9.98,9.71,22.47,7.44,35.24-2.27,12.77-9.38,23.46-19.11,30.53-6.7-9.98-9.71-22.47-7.44-35.24ZM394.8,652.07c-2.6,8.4-8.29,14.99-15.43,18.93-3.67-7.28-4.64-15.93-2.04-24.34,2.6-8.4,8.29-14.99,15.43-18.93,3.67,7.28,4.64,15.93,2.04,24.34ZM412.16,685.09c-5.38-3.41-9.49-8.81-11.12-15.48-1.63-6.67-.46-13.37,2.74-18.86,5.38,3.41,9.49,8.81,11.12,15.48,1.63,6.67.46,13.37-2.75,18.86ZM418.48,649.2c-8.19-6.24-14.08-15.54-15.77-26.52-1.69-10.99,1.13-21.62,7.06-30.04,8.19,6.24,14.08,15.54,15.77,26.52,1.69,10.99-1.13,21.62-7.06,30.04Z"/><path class="cls-2" d="M217.69,367.46c.77.98,3.61,1.15,4.81,1.06,2.16-.16,1.52-1.54,2.13-3.12.88-.26,2.59-.77,3.47-1.03-3.47-2.06-9.14-1.39-10.42,3.1Z"/><path class="cls-2" d="M408.27,557.43c-.1.05-.2.09-.3.14,1.36,2.21,2.76,4.42,4.18,6.67,2.55,4.02,5.19,8.18,7.71,12.6l.48.84c.27.48.55.97.83,1.45,2.08-.49,3.47-1.33,4.13-2.58-.62-2.69-1.26-5.38-1.89-8.07-1.69-2.91-3.65-5.68-5.53-8.49-3.41-5.1-3.91-5.32-9.6-2.56Z"/><path class="cls-2" d="M288.67,354.56c2.68,7.49,7.92,10.11,13.81,7.31-4.68-2.85-10.22-6.67-15.21-11.26.47,1.32.93,2.64,1.4,3.96Z"/><path class="cls-2" d="M339.19,387.6c-5.02-3.28-10.39-6.86-15.64-10.85-.32-.24-.66-.48-1-.72-4.5,2.69-6.11,7.59-3.94,12.73,2.06,4.9,3.06,9.63.99,14.82-1.57,3.94.17,6.79,3.78,8.52,3.93,2.86,7.91,2.78,11.98.5,2.67-1.5,5.39-2.92,8.05-4.44,10.95-6.26,11.85-4.23,9.7-12.12-4.94-2.68-9.65-5.64-13.92-8.43Z"/><path class="cls-2" d="M311.28,438.56c-1.37-.25-2.76-.39-4.17-.48,5.31,6.07,10.83,11.96,16.52,17.7,1.91-3.12.04-4.45-4.94-12.97-1.27-2.17-4.72-3.77-7.41-4.25Z"/><path class="cls-2" d="M375.94,502.19c-.3.05-.6.06-.9.09,2.98,2.95,5.67,5.87,8.1,8.81-.19-1.76-.47-3.52-.92-5.29-.87-3.4-2.94-4.17-6.27-3.62Z"/><path class="cls-2" d="M343.56,474.62c2.07,2.56,4.85,4.79,7.53,6.94l.17.14c6.28,5.04,12.09,9.76,17.73,14.87.61-.29,1.22-.59,1.83-.87,1.47-.68,1.14-5.34,1.55-8.18.12-.86-.09-1.75-.05-2.63.33-7.36.04-7.82-7.43-8.11-4.75-.18-9.12-.6-12.98-4.09-2.28-2.06-6.66-1.28-9.41.91.19.17.38.34.57.51.17.15.34.32.48.5Z"/><path class="cls-2" d="M342.33,415.4c-2.92,1.56-3.74,3.83-2.27,6.51,1.81,3.3,3.92,6.49,6.26,9.44,3.62,4.56,6.58,5.17,10.43.92,4.04-4.45,8.38-5,13.74-4.36,1.04.12,2.13-.23,3.04-.61-.26-.51-.52-1.01-.77-1.52l-2.31-4.59c-.5-.98-1.04-1.94-1.57-2.9-1.32.27-2.74-.09-3.76-1.12-1.55-1.56-1.59-4.04-.13-5.65-7.6-1.91-15.1-.16-22.66,3.88Z"/><path class="cls-2" d="M295.7,409.03c.39,6.76.8,7.77,7.74,8.03,3.65.14,7.35.1,9.78-3,.33-.83.56-1.37.76-1.91,2.92-7.82,1.11-15.6-.35-23.34-.16-.85-1.77-1.84-2.83-2.02-4.01-.68-8.1-.88-12.1-1.57-6.02-1.04-6.99,0-5.81,6.14,1.13,5.86,2.47,11.75,2.81,17.67Z"/><path class="cls-2" d="M412.77,528.26c-.85.1-1.76.38-2.76.89-4.76,2.45-9.6,3.28-14.56,1.75.94,2.14,1.8,4.33,2.57,6.59,1.71,4.98,3.91,9.56,6.39,14.02.37-.04.74-.08,1.1-.14,4.37-.69,8.7-1.85,13.07-2.32-.67-2.53-1.34-5.06-2.05-7.57-1.23-4.41-2.49-8.82-3.76-13.22Z"/><path class="cls-2" d="M399.96,488.91c-2.66-2.15-5.37-4.26-8.02-6.43-.19.19-.39.39-.58.58-1.94-.97-3.94-2.83-5.79-2.7-2.77.21-5.99,1.23-7.95,3.06-1.21,1.13-1.31,4.84-.4,6.61,2.9,5.65,6.35,11.03,9.95,16.28.95,1.38,3.45,2.93,4.79,2.6,4.54-1.14,9-2.77,13.32-4.63-.28-.82-.54-1.64-.82-2.45-1.45-4.32-2.96-8.62-4.49-12.91Z"/><path class="cls-2" d="M335.86,441.56c.14-.26.25-.53.38-.79,3.73-7.43,2.48-14.51-3.79-19.88-1.23-1.05-3.15-1.88-4.72-1.83-5.37.17-10.76.59-16.08,1.33-1.84.26-3.52,1.72-5.27,2.63,1.07,1.62,1.91,3.45,3.24,4.82,4.73,4.9,10.22,9.2,14.32,14.57,6.12,8.01,7.19,8.22,11.94-.86Z"/><path class="cls-2" d="M281.07,389.64c-2.85.73-5.66,1.67-8.43,2.69,5.08,7.88,10.43,15.57,16.05,23.06,2.84-6.43,1.25-19.58-3.4-24.49-.9-.95-2.97-1.58-4.22-1.26Z"/><path class="cls-2" d="M381.78,444.25l-2.7-5.68c-.77-.47-1.55-.93-2.32-1.4-5.91-4.64-10.14-2.76-11.58,4.58-.42,2.13-1.04,4.26-1.92,6.24-2.39,5.35-.94,7.42,4.98,7.73,5.92.31,11.81,1.13,17.72,1.76.61.07,1.16.05,1.68-.01l-1.68-3.82c-1.4-3.13-2.72-6.31-4.18-9.41Z"/><path class="cls-2" d="M340.64,465.41c2.89,1.32,6.15,1.77,9.18,2.81,5.45,1.87,7.14.93,7.82-4.83.19-1.58.12-3.22-.08-4.81-.57-4.78-1.7-9.54-1.76-14.31-.05-3.3-1.19-4.98-4.1-5.66-3.24-.76-6.4-.81-9.45,3.01-1.53,5.96-3.48,12.81-4.87,19.77-.22,1.13,1.79,3.35,3.25,4.02Z"/><path class="cls-2" d="M389.34,461.6c-6.2-.54-12.41-.97-18.62-1.32-3.35-.19-9.43,5.67-9.4,8.97,0,.63.42,1.68.86,1.81,5.36,1.55,10.92,4.5,16.11,3.98,5.17-.52,9.93-1.22,15.32,1.13.34-.7.6-1.38.82-2.05-1.44-3.68-2.92-7.34-4.47-10.98l-.63-1.55Z"/><path class="cls-2" d="M396.73,511.92c-6.48.97-6.92.68-8.19,6.4,1.71,2.55,3.25,5.14,4.63,7.8,6.28.09,12.4-.94,18.21-2.63-1.49-5.01-3.04-9.99-4.67-14.94-3.23,1.47-6.56,2.85-9.97,3.36Z"/><path class="cls-2" d="M305.79,365.89c-2.68,1.01-5.32,2.13-7.91,3.3-1.18.53-2.14,3.45-1.83,4.98.46,2.24,1.79,5.65,3.4,6.07,7.18,1.87,14.44-.62,19.75-6.52-1.18-.81-2.36-1.63-3.47-2.55-.07.03-.14.07-.22.1-1.92.88-3.73,1.72-5.16,2.77-1.47,1.08-3.46,1.06-4.92-.03-1.45-1.1-2.01-3.02-1.38-4.72.38-1.03,1-2.21,1.73-3.4Z"/><path class="cls-2" d="M304.11,434.07c1.1-.21,2.93-2.4,2.7-2.9-1.77-3.92-3.96-7.66-5.45-10.4-2-1.11-5.4-.8-8.38.22,3.48,4.46,7.06,8.84,10.73,13.14.13-.02.26-.04.39-.07Z"/><path class="cls-2" d="M292.46,380.8c2.26-3.96-2.24-7.18-4.41-10.49-.32-.48-.68-1.21-1.12-1.28-1.13-.2-2.94-.6-3.39-.04-3.58,4.45-6.9,9.1-11.24,14.95,4.45.08,7.59.56,10.58.07,3.39-.55,8.33-.99,9.59-3.2Z"/><path class="cls-3" d="M602.08,434.04c-2.69-1.97-6.48-.33-9.27,1.5-5.55,3.67-10.61,8.12-16.58,11.06-5.68,2.8-12.61,4.05-18.34,1.47-.29-.13-.58-.28-.86-.42-5.58-2.94-8.62-8.98-12.23-14.15-6.36-9.11-15.45-16.64-23.18-24.76-4.54-4.75-8.59-9.71-11.37-15.3-1.47-2.97-2.59-6.11-3.22-9.51-.68-3.73-.73-7.56-1.02-11.34-.19-2.52-.48-5.01-1.15-7.42-.79-2.82-2.02-5.42-3.54-7.88-3.95-6.39-9.72-11.88-14.12-18.1-.64-.9-1.25-1.82-1.82-2.77-2.93-4.73-5.1-9.91-6.45-15.3-1.32-5.15-1.89-10.48-1.66-15.78.07-1.62.15-3.39-.03-5.08-.23-2.74-1.06-5.23-3.39-6.45-3.45-1.82-7.47.68-10.95,2.45-8.43,4.28-18.9,4.28-27.31,0-1.18-.6-2.31-1.28-3.44-1.99-4.98-3.22-9.43-7.34-14.89-9.61-2.27-.95-4.59-.52-6.84.67-4.41,2.31-8.59,7.53-11.73,11.15-4.08,4.69-11.02,5.98-17.13,4.8-6.1-1.16-11.57-4.41-16.9-7.58-9.77-5.84-19.54-11.66-29.32-17.48,1.11-5.42,2.21-10.96,1.37-16.41-.84-5.46-4.05-10.89-9.2-12.83-9.55-3.57-18.72,5.75-28.56,8.36-10.41,2.75-21.76-2.2-32.06.92-3.45,1.03-6.75,2.96-10.06,4.73,21.25,14.75,41.85,30.72,61.04,48.59,2.61,2.5,5.3,4.92,7.86,7.48l7.69,7.69c2.55,2.58,4.95,5.3,7.44,7.95,2.5,2.65,4.88,5.4,7.25,8.17,4.85,5.44,9.35,11.19,13.86,16.93,4.31,5.88,8.75,11.69,12.75,17.78,13.87,20.37,25.67,42.03,35.71,64.37,1.86,4.13,3.67,8.28,5.4,12.46,2.91,6.99,5.62,14.05,8.18,21.15.36.99.7,1.98,1.05,2.97.1.28.2.55.29.82,2.31-1.09,4.56-2.3,6.81-3.46,1.63-.86,3.29-1.69,4.96-2.46,4.18-1.89,8.3-3.74,12.43-5.68,2.53-1.19,5.08-2.43,7.63-3.73,1.38-.71,2.68-1.51,3.97-2.33.7-.45,1.38-.92,2.07-1.37,2.66-1.85,5.21-3.81,7.76-5.84,1.88-1.97,3.46-4.37,4.8-6.49.19-.31.55-.68.92-1.09.74-.82,1.56-1.78,1.48-2.71-.07-1.03-1.94-3.04-2.4-4.09-.6-1.34-1.11-2.8-1.53-4.27,2.87-.15,6.84.61,7.51,3.42.68-3.51-3-5.37-5.84-6.46-.9-.35-1.54-.74-2.04-1.19-.28-.25-.51-.51-.7-.8-.03-.33-.1-.67-.13-1,1.97-2.91,6.52.35,9.61,1.81.74.35,1.38.58,1.91.63,1.37.09,2.65-.17,3.87-.63,2.78-1.02,5.31-2.98,8.11-3.89,8.78-2.84,19.13-1.89,28.04-.19,5.43,1.03,11.02,3.1,14.46,7.66,3.25,4.31.96,8.37.45,13.17-.31,2.91.76,4.96,1.73,7.13-.87-1-1.95-1.78-3.04-2.72-1.08-.93-1.94-1.86-2.27-3.28-.16-.68-.26-1.59-.28-2.47.64.67,2.43.28,3.06-.36.67-.68,1.94-3.03,1.37-3.76-1.54-2.01-4.38-1.19-5.82.44-.89,1-1.25,2.3-.47,3.45v.12c-.13,2.11.96,4.02,2.78,5.74,1.37,1.3,3.14,2.43,4.16,4.08.79,1.24.98,2.62,1.19,4.06.22,1.43.25,3.04-.04,4.57-.73,2.3-1.98,4.32-3.54,5.02-.87-.92-1.43-2.26-1.79-3.6,2.1-.52,3.68-3.32,3.22-6.13-.22-1.28-1-1.95-2.04-2.23-.03,0-.04-.01-.06-.03-1.31-.67-2.84-.16-4.27.04-1.53.2-3.95.28-3.7,2.31.03.26.12.49.19.73.26,1.59,2.23,3,3.23,4.05.64.7,1.31,1.09,1.97,1.25-.25.47-.52.9-.84,1.3-.96,1.21-2.23,2.08-3.87,2.49-1.78.44-3.62.41-5.15.49-.42-.09-.84-.19-1.28-.42-1.18-.61-2.24-.99-2.93-2.15-.13-.23-.26-.47-.36-.73-.01-.03-.03-.07-.04-.1-.35-1.34-.41-2.75-.23-4.56.29-2.8.67-4.89,1.83-7.32.93-1.92,2.31-2.72,1.92-5.05-.19-1.08-.74-2.11-1.31-3.26-.09-.19-.17-.36-.28-.55-.98-2.01-2.15-4.09-4.38-5.3-1.22-.66-2.96-.61-4.47-.33-.71.13-2.59,1.02-3.81,1.21v.36c.25.19.48.38.82.55.89.47,2.11.83,3.01,1.14-.23.9.04,1.75.61,2.37.44.49,1.06.86,1.75,1.03,1.53.38,3.13-.76,4.48-.31,1.18.39,1.31,3.36,1.09,4.72-.55,3.52-2.85,6.16-3.42,9.93-.22,1.47-.13,3.64.55,5.47.55,1.51,1.51,2.79,3.03,3.25,1.05.54,2.34.87,3.49.93,1.12.06,2.72.22,4.09-.03,1.78.19,3.54.07,4.86-.93.16-.12.31-.25.45-.39.8-.19,1.91.58,3.1,1.16-.71,1.69-1.98,2.96-3.55,3.81-2.52,1.4-5.78,1.76-8.75,1.16-1-.2-1.78-1.19-2.8-1.38-1.27-.23-2.3.41-3.57.25-2.5-.31-3.76-2.31-5.76-3.33,1.09,4.41,4.43,6.41,8.79,6.67-1.59,1.11-2.88,2.52-4,4.13-3.48,5.05-5.15,12.01-8.27,17.22-1.82,3.04-3.71,5.88-5.42,8.81-.52.96-1.05,1.91-1.57,2.85-.13.23-.25.47-.36.7-.29.54-.55,1.06-.8,1.62-.45,1.03-1.03,2.02-1.67,2.98-.31,1.91-.61,3.83-1.08,5.76-1.92,7.98-3.6,16.79-6.13,25.07-.51,3.39-1.4,6.7-3.04,9.9-.89,1.72-1.91,3.26-2.98,4.75-.01-.01-.03-.03-.03-.04-.09.13-.16.28-.23.42-1.57,3.41-3.32,6.73-5.11,9.78-1.75,3-3.38,6.07-4.96,9.16-.36,1.05-.74,2.07-1.18,3.06-2.72,6.23-4.85,12.69-7.57,18.87-2.66,6.09-3.06,12.58-4.09,19.11-1.24,7.86-1.57,15.96-3.1,23.7-.35,1.83-.67,3.92-1.15,5.74,1.34,18.15,2.17,36.31,2.58,54.45.12,6.04.19,12.07.23,18.11.8-1.21,1.56-2.45,2.26-3.74,6.14-11.52,8.31-26.6,19.68-32.99,5.53-3.12,10.32-9.24,11.01-15.56.68-6.3-.5-12.88,1.51-18.9,4.59-13.73,22.78-17.7,30.63-29.86,7.88-12.2,3.04-28.26-1.94-41.9-4.98-13.64-9.65-29.77-1.59-41.85,8.02-12,18.07-18.95,28.59-27.63,1.82-1.5,3.65-3.06,5.5-4.72.44-.38.87-.77,1.31-1.16,17.98-16.41,30.34-37.91,42.42-59.05,2.13-3.71,3.95-9.14.47-11.66ZM423.91,360.97c.6-8.78,4.63-16.49,10.67-21.97,4.24,5.05,6.96,11.4,7.53,18.28.15,1.62.16,3.26.04,4.93-.26,3.67-1.11,7.16-2.46,10.37-1.88,4.47-4.7,8.41-8.23,11.6-5.24-6.25-8.17-14.44-7.56-23.22ZM364.9,347.7c-8.36-7.77-12.84-18.14-13.42-28.69,10.57-.17,21.23,3.55,29.58,11.33,8.34,7.77,12.84,18.12,13.42,28.68-10.57.19-21.23-3.55-29.58-11.31ZM399.44,332.8c4.19,1.46,8.01,3.99,10.99,7.47,1.31,1.51,2.45,3.2,3.38,5.05,3.12,6.13,3.51,12.91,1.66,19-1.75-.61-3.45-1.41-5.04-2.4-3.86-2.36-7.13-5.79-9.33-10.13-3.12-6.11-3.51-12.9-1.66-18.98ZM401.5,400.05c-4.16-10.29-3.84-21.3,0-30.85,3.19,1.43,6.19,3.25,8.92,5.44,5.37,4.27,9.75,9.94,12.51,16.76,4.16,10.31,3.86,21.31,0,30.86-4.63-2.07-8.88-4.99-12.51-8.65-3.74-3.77-6.81-8.34-8.92-13.57ZM425.96,452.95c-5.9-3.99-9.68-9.94-11.05-16.41,5.75-1,11.85-.12,17.25,2.85.71.39,1.41.82,2.1,1.28,1.82,1.24,3.45,2.65,4.85,4.22,3.16,3.49,5.26,7.72,6.22,12.18-6.51,1.14-13.45-.15-19.36-4.13ZM454.04,444.9c-.51.66-1.02,1.28-1.56,1.91-.67-.61-1.31-1.25-1.94-1.91-4.21-4.37-7.61-9.55-9.96-15.3-1.94-4.79-3.12-9.96-3.42-15.39-.1-1.85-.1-3.67.01-5.47.29-5.37,1.48-10.53,3.45-15.3,1.97-4.88,4.73-9.38,8.14-13.32,4.08,3.79,7.51,8.3,10.07,13.32,2.43,4.69,4.11,9.83,4.85,15.3.19,1.31.32,2.64.39,3.97.33,5.88-.41,11.57-2.07,16.89-1.72,5.59-4.45,10.77-7.98,15.3Z"/><path class="cls-3" d="M492.5,547.22c-.13.4-.25.79-.38,1.18.06-.08.13-.16.17-.23.14-.25.19-.59.21-.95Z"/><path class="cls-3" d="M473.99,560.53c.79-.14,2.29-.94,2.36-1.98.15-2.02,1.26-3.28,3.01-4.65,1.54-1.21,1.72-2.92.5-4.71-.08-.11-.18-.2-.3-.27l-.52-.3c-.49-.29-1.07-.62-1.67-.87-1.04-.44-2.04-.69-3.03-.85-1.84-.3-3.6-.18-5.24.48-1.22.49-2.26,1.28-2.78,2.14-1.2,1.99-2.23,4.11-3.22,6.15l-.28.57c-.47.97-.77,1.91-.87,2.79-.12.99.09,1.75.62,2.26.42.4.98.6,1.7.6.21,0,.43-.02.67-.05,1.19-.18,2.38-.34,3.57-.5.22-.03.43-.07.65-.1,1.61-.22,3.22-.44,4.82-.71Z"/><path class="cls-3" d="M483.16,463.79c-.28.28-.57.57-.83.87-1.14,1.28-1.81,2.9-2.46,4.47l-.11.26c-.65,1.57-.23,3.09,1.12,4.05.83.59,1.7.89,2.54.89.77,0,1.51-.25,2.15-.75,3.29-2.53,6.31-5.16,7.21-9.51.29-1.4.03-2.65-.72-3.53-.72-.84-1.83-1.25-3.18-1.2l-3.42.2c-.25.01-.48.14-.63.33-.15.2-.21.45-.15.69.28,1.32-.36,2.05-1.54,3.21Z"/><path class="cls-3" d="M465.84,481.15c-1.02,1.63-1.63,4.1,1.26,6.59.61.53,1.43.98,2.44.98.9,0,1.96-.37,3.15-1.38.02-.01.03-.03.05-.04l1.02-1c.93-.9,1.9-1.84,2.79-2.83.51-.57.73-1.66.49-2.43-.57-1.87-1.28-3.71-1.9-5.27-.35-.87-.88-1.46-1.58-1.74-.73-.29-1.55-.23-2.46.17-2.12.94-3.53,2.48-4.21,4.58-.29.9-.66,1.7-1.07,2.37Z"/><path class="cls-3" d="M463.78,508.26c.15.03.3.04.45.04.95,0,1.94-.5,2.85-.96.82-.41,1.61-.88,2.4-1.36.53-.32,1.06-.64,1.6-.94.43-.24.88-.43,1.38-.63l.79-.34c.15-.07.28-.18.37-.32.26-.4.52-.8.79-1.21.74-1.11,1.49-2.26,2.13-3.49.46-.91-.36-2.31-.93-2.8-1.58-1.36-6.95-.14-7.18-.08-2.6.6-4.12,1.4-4.53,2.36-.74,1.77-1.29,3.79-1.71,6.36-.17,1.01.45,3.16,1.59,3.37Z"/><path class="cls-3" d="M459.44,507.67c-.16-.64-.19-1.34-.23-2.07-.02-.39-.04-.78-.07-1.17-.11-1.17-.71-2.11-1.6-2.52-.82-.37-1.75-.25-2.58.33-1.33.93-2.33,2.32-3.17,3.55-.63.91-1.01,1.95-1.39,2.94l-.17.45c-.08.21-.18.43-.28.66-.38.86-.81,1.83-.58,2.77.28,1.12.96,3.18,2.39,4.33.27.21.57.3.91.3.64,0,1.39-.3,2.17-.62.39-.16.77-.31,1.11-.41.24-.07.43-.24.54-.46.06-.13.09-.28.07-.42,2.72-1.89,3.68-4.46,2.87-7.65Z"/><path class="cls-3" d="M451.85,489.83c-1.07,1.77-1.71,3.76-2.19,5.49-.42,1.51-.05,2.45.34,2.97.59.78,1.58,1.19,2.95,1.21.05,0,.1,0,.14,0,2.35,0,4.5-.86,6.58-2.62l-.55-.65.68.55c1.3-1.03,2.92-2.3,2.63-4.68-.25-2-2.12-3.79-4.27-4.07l-.29-.04c-1.93-.25-4.56-.6-6.03,1.84Z"/><path class="cls-3" d="M452.08,483.39c.39,0,.79-.04,1.16-.08l.24-.02c.44-.04.83-.2,1.18-.35.28-.11.62-.22.72-.22,3.05.19,4.87-1.57,6.27-3.31,1.04-1.29,1.4-2.71,1-4-.39-1.27-1.48-2.23-3.05-2.71-2-.61-3.79-.18-5.34,1.26-.11-.04-.23-.05-.34-.03-.23.02-.45.15-.59.33-.34.45-.69.9-1.04,1.34-.92,1.16-1.87,2.37-2.62,3.7-.54.96-.08,2.75.68,3.53.42.44,1.07.55,1.73.55Z"/><path class="cls-3" d="M454.26,523.69c-.97-2.58-3.57-2.55-4.78-2.52-.84.01-1.74.14-2.65.36-1.47.36-2.81,1.57-3.57,3.23-.75,1.63-.8,3.39-.14,4.72.3.6,1.07,1.66,2.06,1.87.73.15,1.49.22,2.27.22,1.51,0,3.08-.28,4.56-.84.08-.03.15-.07.22-.12,2.22-1.7,3-4.35,2.03-6.92Z"/><path class="cls-3" d="M483.23,536.44c-.04.42-.08.83-.08,1.25,0,.7.05,1.4.1,2.1l.05.82c.01.2.09.38.23.53.8.85,1.53,1.07,2.07,1.07.1,0,.19,0,.28-.02.52-.07,1.25-.39,1.8-1.47,1.58-3.1,3.04-6.29,4.31-9.46.33-.82.23-1.95-.31-3.36-.29-.78-.84-1.33-1.53-1.55-.67-.21-1.4-.08-2.07.38-2.4,1.64-5.12,4.08-4.81,8.36.03.45-.02.9-.06,1.36Z"/><path class="cls-3" d="M483.45,509.73c.19-.45.38-.9.58-1.35.41-.93-.26-2.08-1.39-3.51-.51-.66-1.33-.38-2.98.47-.33.18-.6.42-.83.65-.27-.02-.55.08-.73.3l-1.47,1.75c-1.12,1.32-2.24,2.65-3.32,4-1.27,1.59-1.19,3.33.23,4.67.74.7,1.54,1.05,2.41,1.05.69,0,1.42-.23,2.19-.68,2.96-1.75,4.16-4.59,5.33-7.34Z"/><path class="cls-3" d="M476.88,527.24c-.14-1.74-1.16-2.72-2.88-2.75-1.61-.05-3.83.14-5.33,1.94l-.48.37c-.37.29-.71.55-1.02.82-1.4,1.23-1.96,3.76-.45,5.69.78,1,2.48,1.74,3.88,1.74.14,0,.27,0,.4-.02,3.33-.37,6.14-4.71,5.89-7.79Z"/><path class="cls-3" d="M447.44,540.75c2.12.33,4.07.51,5.96.57.04,0,.08,0,.12,0,.69,0,1.35-.18,2.05-.36.33-.09.68-.18,1.05-.26.27-.06.49-.24.6-.49l.53-1.2c.4-.89.81-1.78,1.15-2.7.34-.91.61-1.94.06-2.72-.56-.79-1.63-.9-2.78-.86-3.61.05-6.42,1.83-9.15,3.54l-.56.35c-.63.4-1.38,1.58-1.09,2.45.26.78,1.2,1.55,2.05,1.68Z"/><path class="cls-3" d="M459.06,527.89s.07,0,.1,0c.13-.02.26-.02.38-.03.33-.02.67-.04,1.01-.19l1.02-.45c2.28-1,4.64-2.04,6.91-3.17.84-.42,1.2-1.67,1.19-2.43-.02-1.17-.79-2.42-2.06-3.32-1.35-.96-2.93-1.31-4.12-.92-3.74,1.23-5.96,5.35-5.27,9.81.07.42.42.72.84.72Z"/><path class="cls-3" d="M487.57,487.91c-2.27,2.32-3.41,4.96-3.38,7.85.01,1.21,1.07,2.81,2.16,3.29.3.13.64.2,1,.2.48,0,1.01-.12,1.57-.35,1.11-.46,2.45-1.48,2.93-2.72l.14-.35c.53-1.37,1.08-2.79,1.26-4.29.12-1-.08-1.99-.27-2.94-.08-.39-.15-.77-.21-1.16-.03-.24-.17-.45-.37-.59-.2-.14-.44-.18-.68-.12l-3.76.95c-.15.04-.29.12-.4.23Z"/><path class="cls-3" d="M504.51,464.18c.51-1.34,1.03-2.73,1.44-4.14.26-.9.18-1.69-.23-2.23-.24-.32-.71-.71-1.57-.71-1.16.06-2.3.13-3.32.25-.41.05-.8.09-1.18.13-.24.02-.45.14-.6.33-.15.2-.27.4-.41.59-1.61,2.27-2.65,4.52-3.17,7.03-.17.81.07,1.6.61,2.07.32.28.73.42,1.17.42.26,0,.53-.05.8-.15,1.42-.52,2.8-1.16,4.14-1.78l1.14-.53c.16-.07.6-.37.89-.8.06-.09.15-.14.19-.25l.09-.24Z"/><path class="cls-3" d="M470.17,461.81c-.06.18-.15.36-.24.55-.34.75-1.06,2.31.49,3.15.67.36,1.48.51,2.28.51.66,0,1.31-.1,1.85-.26.88-.27,1.57-.9,2.22-1.51.19-.18.38-.35.58-.52.07-.03.13-.07.19-.11l2.11-1.67c1.33-1.07,1.5-2.05,1.41-2.7-.09-.64-.52-1.53-2.09-2.18-1.07-.44-2.25-.37-2.85-.28-2.91.38-4.91,2.07-5.95,5.01Z"/><path class="cls-3" d="M509.63,471.3c-.3-.37-.79-.48-1.3-.5-.71-.02-1.45.16-1.77.32-.92.44-1.78,1-2.6,1.55-.33.22-.66.44-.99.64-.02.01-.05.03-.07.05-2.43,1.88-3.59,4.03-3.56,6.58,0,.66.48,1.97,1.39,2.22.17.05.34.07.52.07.69,0,1.4-.31,1.91-.65.49-.33.87-.75,1.23-1.15.17-.19.34-.38.53-.56,1.14-1.09,2.29-2.17,3.43-3.25l1.38-1.3c.24-.23.46-.52.62-.86.36-.77.35-1.81-.73-3.16Z"/><path class="cls-3" d="M480.67,482.23c-.24.1-.49.2-.73.27-.2.06-.37.19-.48.37l-.43.69c-.36.57-.72,1.14-1.03,1.74-.2.37-.35.77-.51,1.17-.21.54-.41,1.05-.7,1.43-1.06,1.42-1.05,2.7.05,3.92.71.79,1.54,1.19,2.47,1.19.49,0,1.01-.11,1.55-.34,2.37-1.02,4.76-4.52,4.17-7.17-.31-1.36-1.45-2.51-2.28-3.34-.54-.55-1.29-.25-2.08.07Z"/><path class="cls-3" d="M488.98,522.03c.39.14.75.2,1.06.2,1.35,0,2-1.13,2.43-1.86.87-1.5,1.95-3.02,3.49-4.93.57-.71,1.91-2.36.42-4.05-1.27-1.71-2.74-1.27-3.56-.86-.17.09-.32.17-.43.23-2.24,1.33-3.25,3.43-4.23,5.46-.31.64-.62,1.28-.96,1.89-.37.64-.42,1.38-.17,2.08.13.35.37.66.63.94.35.38.78.7,1.32.89Z"/><path class="cls-3" d="M500.36,488.77c-1.31.82-3.12,2.19-4.31,4.02-.75,1.14-.1,3.35.65,4.32.36.47.8.73,1.3.79.06,0,.13.01.19.01.77,0,1.4-.52,1.93-.95.15-.12.3-.25.44-.34.08-.05.16-.11.23-.17.13-.04.25-.11.35-.21.26-.25.53-.49.8-.73.7-.61,1.41-1.25,1.93-2.07.47-.75,1.05-2.63.27-3.6-.69-.86-2.74-1.7-3.77-1.06Z"/><path class="cls-3" d="M486.91,478.13c-.25.84.58,1.95,1.24,2.23.82.35,1.63.52,2.42.52,1.59,0,3.09-.71,4.5-2.13.17-.15.35-.3.52-.44.49-.4,1-.82,1.39-1.37.42-.58.79-1.59.58-2.45-.25-1.06-1.95-1.39-2.02-1.41-2.75-.52-7.9,2.51-8.63,5.04Z"/><path class="cls-3" d="M440.85,494.27c.23.17.48.23.75.23.59,0,1.26-.32,1.91-.63l.32-.15c.44-.2.8-.52,1.11-.79.11-.1.22-.2.33-.29l.56-.44c.44-.33.88-.67,1.29-1.04.79-.72,1.16-1.66,1.02-2.59-.15-.93-.79-1.71-1.76-2.14-1.45-.65-3.33-.35-4.92.77-1.53,1.08-2.37,2.62-2.25,4.13.08,1.07.77,2.31,1.64,2.94Z"/><path class="cls-3" d="M439.05,504.91c.34.49.87.79,1.5.85.13.01.28.02.43.02,1.04,0,2.47-.29,3.11-1.18.66-.91,1-2.02,1.34-3.08.14-.44.28-.88.44-1.33.09-.25.06-.53-.08-.75-.14-.22-.38-.37-.65-.39-3.24-.25-5.69,1.17-6.36,3.57-.24.88-.15,1.69.27,2.29Z"/><path class="cls-3" d="M439.15,486.72c.35-.89.66-1.65.87-2.47.17-.62.15-1.98-.64-2.48-.66-.43-1.74-.55-2.55-.28-1.18.38-1.88,1.68-2.15,2.77-.33,1.38-.11,2.64.62,3.37.44.44,1.05.55,1.63.65.24.04.49.08.75.15.07.02.15.03.22.03.34,0,.67-.21.8-.55.16-.42.31-.81.46-1.18Z"/><path class="cls-3" d="M492.04,506.47c-.14-.03-.29-.08-.44-.12-.55-.17-1.22-.38-1.76.03-1.45,1.1-2.96,2.37-4.74,3.99-.45.42-.41,1.04-.37,1.49,0,.12.02.24.02.34,0,.24.08.47.25.64.17.17.37.3.64.25.1,0,.22,0,.34,0,.12,0,.25.01.37.01.32,0,.67-.04.99-.25.64-.4,1.23-.89,1.82-1.37l.56-.45s.06-.04.1-.06l.61-.47c.52-.39,1.06-.79,1.54-1.28.36-.37.5-.86.61-1.25.03-.13.07-.26.11-.38.09-.24.07-.5-.05-.72-.12-.22-.33-.37-.58-.42Z"/><path class="cls-3" d="M473.07,538.85c-1.26-.09-2.33.21-2.91.81-.77.8-.64,2.34-.44,3.12.08.32.34.75,1.15.94.32.08.76.12,1.25.12,1.16,0,2.58-.25,3.17-.93.46-.53.57-1.22.66-1.73.02-.13.04-.25.07-.35.07-.25.03-.51-.12-.72-.5-.7-1.55-1.17-2.81-1.26Z"/><path class="cls-3" d="M431.67,477.41c-.97.71-1.68,2.27-1.56,3.41.07.61.38,1.07.86,1.28.36.16.75.21,1.13.21.46,0,.93-.08,1.36-.15.29-.05.58-.1.86-.12.32-.02.6-.23.72-.53.11-.28.35-.52.6-.77.53-.54,1.51-1.54.32-3.05-.63-.81-2.03-1.93-4.3-.28Z"/><path class="cls-3" d="M507.44,483.51c-.31.73-.24,1.43.18,1.92.31.36.77.55,1.32.55.23,0,.47-.03.72-.1.39-.1.72-.29,1.13-.52.2-.11.42-.24.7-.38.16-.08.29-.22.37-.38l.25-.46c.3-.55.67-1.23.9-1.99.19-.59.03-1.49-.23-1.97-.21-.38-.48-.52-.67-.57-.72-.19-1.98-.15-2.58.55-.89,1.06-1.61,2.23-2.09,3.36Z"/><path class="cls-3" d="M483.97,525.33l-.18-.99c-.07-.36-.35-.63-.71-.69-.22-.03-.44-.08-.66-.13-.62-.13-1.33-.28-2.02-.14-.82.16-1.85,1.41-1.7,2.33.12.71.84,1.41,1.26,1.69.27.18.54.26.79.26.09,0,.18-.01.27-.03.74-.19,1.36-.61,1.95-1.02.21-.14.41-.28.62-.41.3-.18.46-.53.39-.88Z"/><path class="cls-3" d="M446.08,503.21c-.03.1-.07.21-.12.32-.16.39-.38.93-.16,1.46.15.38.55,1.38,1.52,1.62.15.04.29.05.43.05.84,0,1.62-.57,2.17-1.03.21-.18.31-.44.29-.71s-.17-.51-.4-.66l-2.48-1.55c-.23-.14-.5-.17-.76-.07-.25.1-.44.3-.51.56Z"/><rect class="cls-2" x="465.82" y="106.68" width="52.34" height="61.94"/></svg>